<svg viewBox="0 0 395.52 105.02389803505045" height="105.02389803505045" width="395.52"><g><svg viewBox="0 0 395.52 105.02389803505045" height="105.02389803505045" width="395.52"><g><svg viewBox="0 0 395.52 105.02389803505045" height="105.02389803505045" width="395.52"><g id="textblocktransform"><svg viewBox="0 0 395.52 105.02389803505045" height="105.02389803505045" width="395.52" id="textblock"><g><svg viewBox="0 0 395.52 105.02389803505045" height="105.02389803505045" width="395.52"><g transform="matrix(1,0,0,1,0,0)"><svg width="395.52" viewBox="5 -49.29999923706055 282.42999267578125 75" height="105.02389803505045" data-palette-color="#000000"><path d="M13.4 0L5 0 5.05-0.2 5.05-36.1 13.75-36.1Q19.8-36.1 24.13-34 28.45-31.9 30.78-27.93 33.1-23.95 33.1-18.25L33.1-18.25Q33.1-9.55 27.93-4.78 22.75 0 13.4 0L13.4 0ZM9.7-31.8L9.7-4.3 14.1-4.3Q20.95-4.3 24.63-7.9 28.3-11.5 28.3-18.25L28.3-18.25Q28.3-24.95 24.58-28.38 20.85-31.8 13.7-31.8L13.7-31.8 9.7-31.8ZM35.45 0.7L35.45 0.7Q34.8 0.7 34.4 0.1 34-0.5 34-1.45L34-1.45Q34-3.6 35.8-3.6L35.8-3.6Q37.25-3.6 38.75-4.08 40.25-4.55 42.25-5.7L42.25-5.7Q40.3-9.1 40.3-13.7L40.3-13.7Q40.3-16.8 41.45-19.18 42.6-21.55 44.65-22.93 46.7-24.3 49.3-24.3L49.3-24.3Q51.5-24.3 53.2-23.28 54.9-22.25 55.85-20.45 56.8-18.65 56.8-16.3L56.8-16.3Q56.8-13.1 54.92-10.45 53.05-7.8 48.6-4.7L48.6-4.7Q50.2-3.55 52.9-3.55L52.9-3.55Q53.6-3.55 54-2.95 54.4-2.35 54.4-1.35L54.4-1.35Q54.4-0.4 53.95 0.15 53.5 0.7 52.65 0.7L52.65 0.7Q50.25 0.7 48.15-0.1 46.05-0.9 44.65-2.3L44.65-2.3Q39.85 0.7 35.45 0.7ZM44.65-14.1L44.65-14.1Q44.65-10.15 46.05-7.8L46.05-7.8Q49.3-10.05 50.87-12.2 52.45-14.35 52.45-16.3L52.45-16.3Q52.45-18.1 51.57-19.13 50.7-20.15 49.15-20.15L49.15-20.15Q47.2-20.15 45.92-18.4 44.65-16.65 44.65-14.1ZM57.55 0.7L57.55 0.7Q56.9 0.7 56.5 0.1 56.1-0.5 56.1-1.45L56.1-1.45Q56.1-3.6 57.9-3.6L57.9-3.6Q59.5-3.6 61.45-5.58 63.4-7.55 66-11.95L66-11.95 71.35-21Q71.25-21.7 71.25-22.5L71.25-22.5Q71.25-25 72.17-26.2 73.1-27.4 73.7-27.65L73.7-27.65Q74.55-27.85 75.52-27.63 76.5-27.4 77.3-26.9 78.1-26.4 78.4-25.7L78.4-25.7Q78.2-24.8 77.65-23.55 77.1-22.3 75.9-20.2L75.9-20.2Q76.25-19.65 76.8-19.1 77.35-18.55 78.15-17.9L78.15-17.9 81.95-14.8Q84-13.15 85.02-11.38 86.05-9.6 86.05-7.4L86.05-7.4Q86.05-4.75 84.55-2.7L84.55-2.7Q84.8-2.15 84.8-1.4L84.8-1.4Q84.8-0.45 84.32 0.13 83.85 0.7 83 0.7L83 0.7Q82.2 0.7 81.45 0.6 80.7 0.5 79.8 0.35L79.8 0.35Q78.45 0.7 76.95 0.7L76.95 0.7Q75.2 0.7 73.45 0.18 71.7-0.35 69.8-1.5L69.8-1.5Q69.7-4.15 71.8-5.4L71.8-5.4Q74.55-3.6 77-3.6L77-3.6Q79.1-3.6 80.35-4.73 81.6-5.85 81.6-7.6L81.6-7.6Q81.6-9.8 79.2-11.7L79.2-11.7 75.4-14.7Q74.4-15.5 73.6-16.35L73.6-16.35 68.6-7.9Q65.85-3.25 63.32-1.28 60.8 0.7 57.55 0.7ZM88.24-3.6L88.24-3.6Q89.29-3.6 90.49-4.25 91.69-4.9 92.74-6.25L92.74-6.25Q93.99-7.95 94.57-10.15 95.14-12.35 95.29-14.6L95.29-14.6 95.29-23.6Q95.74-23.75 96.34-23.85 96.94-23.95 97.59-23.95L97.59-23.95Q98.74-23.95 99.84-23.6L99.84-23.6 99.84-9.2Q99.84-6.55 100.67-5.08 101.49-3.6 103.44-3.6L103.44-3.6Q104.29-3.6 104.59-2.9 104.89-2.2 104.89-1.4L104.89-1.4Q104.89-0.6 104.47 0.05 104.04 0.7 103.09 0.7L103.09 0.7Q97.89 0.7 96.34-4.2L96.34-4.2Q95.64-3.05 94.84-2.25L94.84-2.25Q93.49-0.9 91.72-0.1 89.94 0.7 87.89 0.7L87.89 0.7Q87.19 0.7 86.82 0.03 86.44-0.65 86.44-1.45L86.44-1.45Q86.44-2.3 86.87-2.95 87.29-3.6 88.24-3.6ZM97.64-30.8L97.64-30.8Q96.24-30.8 95.24-31.8 94.24-32.8 94.24-34.2L94.24-34.2Q94.24-35.7 95.22-36.65 96.19-37.6 97.64-37.6L97.64-37.6Q99.14-37.6 100.09-36.65 101.04-35.7 101.04-34.2L101.04-34.2Q101.04-32.75 100.07-31.78 99.09-30.8 97.64-30.8ZM103.44-3.6L103.44-3.6Q105.14-3.6 106.77-5.28 108.39-6.95 109.49-9.8L109.49-9.8Q109.44-10.5 109.44-11.2L109.44-11.2Q109.44-15 110.94-17.95 112.44-20.9 115.02-22.6 117.59-24.3 120.89-24.3L120.89-24.3Q122.64-24.3 124.34-23.63 126.04-22.95 127.19-21.8L127.19-21.8 127.19-23.85Q127.64-24 128.24-24.1 128.84-24.2 129.49-24.2L129.49-24.2Q130.69-24.2 131.74-23.85L131.74-23.85 131.74 14Q131.74 25.7 123.19 25.7L123.19 25.7Q119.24 25.7 117.02 23.35 114.79 21 114.79 16.9L114.79 16.9Q114.79 7.75 127.29-0.25L127.29-0.25 127.29-2.35Q125.89-0.9 124.04-0.1 122.19 0.7 119.99 0.7L119.99 0.7Q117.09 0.7 114.87-0.58 112.64-1.85 111.24-4.1L111.24-4.1Q108.14 0.7 103.09 0.7L103.09 0.7Q102.44 0.7 102.04 0.1 101.64-0.5 101.64-1.45L101.64-1.45Q101.64-3.6 103.44-3.6ZM114.09-11.2L114.09-11.2Q114.09-7.65 115.72-5.63 117.34-3.6 120.19-3.6L120.19-3.6Q123.34-3.6 125.27-5.75 127.19-7.9 127.19-11.4L127.19-11.4 127.19-17Q126.19-18.35 124.64-19.18 123.09-20 121.44-20L121.44-20Q119.29-20 117.64-18.85 115.99-17.7 115.04-15.73 114.09-13.75 114.09-11.2ZM119.29 16.8L119.29 16.8Q119.29 18.95 120.29 20.18 121.29 21.4 123.04 21.4L123.04 21.4Q127.29 21.4 127.29 14L127.29 14 127.29 5.05Q119.29 10.7 119.29 16.8ZM137.74 0.7L137.74 0.7Q137.09 0.7 136.69 0.1 136.29-0.5 136.29-1.45L136.29-1.45Q136.29-3.6 138.09-3.6L138.09-3.6Q139.69-3.6 140.96-5.23 142.24-6.85 143.19-10.65L143.19-10.65 144.69-16.5Q146.79-24.3 152.69-24.3L152.69-24.3Q154.94-24.3 156.49-22.98 158.04-21.65 158.64-19.4L158.64-19.4Q160.04-21.75 162.24-23.03 164.44-24.3 167.14-24.3L167.14-24.3Q171.04-24.3 173.16-21.75 175.29-19.2 175.29-14.6L175.29-14.6 175.29-8.75Q175.29-6 176.01-4.8 176.74-3.6 178.34-3.6L178.34-3.6Q179.04-3.6 179.41-3 179.79-2.4 179.79-1.4L179.79-1.4Q179.79-0.6 179.36 0.05 178.94 0.7 177.99 0.7L177.99 0.7Q170.74 0.7 170.74-8.2L170.74-8.2 170.74-14.6Q170.74-20 166.49-20L166.49-20Q164.29-20 162.61-18.25 160.94-16.5 160.01-13.4 159.09-10.3 159.09-6.2L159.09-6.2 159.09 0Q158.59 0.15 157.99 0.25 157.39 0.35 156.84 0.35L156.84 0.35Q155.64 0.35 154.59 0L154.59 0 154.59-15.95Q154.59-17.9 154.09-18.95 153.59-20 152.29-20L152.29-20Q151.24-20 150.49-19.05 149.74-18.1 149.19-16L149.19-16 147.34-8.8Q146.04-3.85 143.74-1.58 141.44 0.7 137.74 0.7ZM178.34-3.6L178.34-3.6Q180.04-3.6 181.66-5.28 183.29-6.95 184.39-9.8L184.39-9.8Q184.34-10.5 184.34-11.2L184.34-11.2Q184.34-15 185.84-17.95 187.34-20.9 189.91-22.6 192.49-24.3 195.79-24.3L195.79-24.3Q197.54-24.3 199.24-23.63 200.94-22.95 202.09-21.8L202.09-21.8 202.09-23.85Q202.54-24 203.14-24.1 203.74-24.2 204.39-24.2L204.39-24.2Q205.59-24.2 206.64-23.85L206.64-23.85 206.64-9.2Q206.64-6.55 207.46-5.08 208.29-3.6 210.24-3.6L210.24-3.6Q211.09-3.6 211.39-2.9 211.69-2.2 211.69-1.4L211.69-1.4Q211.69-0.6 211.26 0.05 210.84 0.7 209.89 0.7L209.89 0.7Q204.99 0.7 203.34-3.7L203.34-3.7Q201.89-1.65 199.71-0.48 197.54 0.7 194.89 0.7L194.89 0.7Q191.99 0.7 189.76-0.58 187.54-1.85 186.14-4.1L186.14-4.1Q183.04 0.7 177.99 0.7L177.99 0.7Q177.34 0.7 176.94 0.1 176.54-0.5 176.54-1.45L176.54-1.45Q176.54-3.6 178.34-3.6ZM188.99-11.2L188.99-11.2Q188.99-7.65 190.61-5.63 192.24-3.6 195.09-3.6L195.09-3.6Q198.24-3.6 200.16-5.75 202.09-7.9 202.09-11.4L202.09-11.4 202.09-17Q201.09-18.35 199.54-19.18 197.99-20 196.34-20L196.34-20Q194.19-20 192.54-18.85 190.89-17.7 189.94-15.73 188.99-13.75 188.99-11.2ZM209.88 0.7L209.88 0.7Q209.23 0.7 208.83 0.1 208.43-0.5 208.43-1.45L208.43-1.45Q208.43-2.45 208.91-3.03 209.38-3.6 210.18-3.6L210.18-3.6Q211.98-3.6 214.08-5.05 216.18-6.5 218.13-9.05L218.13-9.05Q217.33-12.7 217.33-19.25L217.33-19.25 217.33-33.15Q217.33-37.3 217.61-39.85 217.88-42.4 218.53-44.1L218.53-44.1Q219.48-46.6 221.28-47.95 223.08-49.3 225.53-49.3L225.53-49.3Q228.93-49.3 230.98-45.98 233.03-42.65 233.03-37.05L233.03-37.05Q233.03-32.3 231.86-27.25 230.68-22.2 228.43-17.28 226.18-12.35 222.98-8L222.98-8Q223.13-7.65 223.28-7.35L223.28-7.35Q224.33-5.5 225.76-4.63 227.18-3.75 229.28-3.75L229.28-3.75Q231.53-3.75 233.23-5 234.93-6.25 235.88-8.47 236.83-10.7 236.83-13.6L236.83-13.6Q236.83-14.65 236.68-15.7L236.68-15.7Q233.53-17.7 232.53-19.25L232.53-19.25Q232.88-20.25 233.66-21.18 234.43-22.1 235.38-22.68 236.33-23.25 237.18-23.25L237.18-23.25Q238.33-23.25 239.28-22.03 240.23-20.8 240.81-18.78 241.38-16.75 241.38-14.3L241.38-14.3Q241.38-9.8 239.91-6.48 238.43-3.15 235.71-1.33 232.98 0.5 229.28 0.5L229.28 0.5Q222.73 0.5 219.83-4.4L219.83-4.4Q215.23 0.7 209.88 0.7ZM221.53-33.75L221.53-20.25Q221.53-16.2 221.78-13.6L221.78-13.6Q225.23-19.5 227.01-25.55 228.78-31.6 228.78-37.1L228.78-37.1Q228.78-45.15 225.28-45.15L225.28-45.15Q223.23-45.15 222.33-42.4L222.33-42.4Q221.53-39.95 221.53-33.75L221.53-33.75ZM244.03 0.7L244.03 0.7Q243.38 0.7 242.98 0.1 242.58-0.5 242.58-1.45L242.58-1.45Q242.58-2.45 243.06-3.03 243.53-3.6 244.33-3.6L244.33-3.6Q245.93-3.6 247.78-4.75 249.63-5.9 251.38-7.9L251.38-7.9Q250.98-9.75 250.76-12.25 250.53-14.75 250.43-18.3 250.33-21.85 250.33-26.85L250.33-26.85 250.38-26.85 250.33-26.9Q250.33-31.35 250.43-34.45 250.53-37.55 250.83-39.65 251.13-41.75 251.61-43.23 252.08-44.7 252.83-45.9L252.83-45.9Q253.93-47.7 255.56-48.5 257.18-49.3 259.13-49.3L259.13-49.3Q263.03-49.3 265.13-45.85 267.23-42.4 267.23-36.35L267.23-36.35Q267.23-29.1 264.38-21.45 261.53-13.8 256.23-6.85L256.23-6.85Q256.93-5.2 258.28-4.38 259.63-3.55 261.38-3.55L261.38-3.55Q262.08-3.55 262.51-2.98 262.93-2.4 262.93-1.4L262.93-1.4Q262.93 0.7 261.08 0.7L261.08 0.7Q258.38 0.7 256.28-0.45 254.18-1.6 253.03-3.4L253.03-3.4Q248.88 0.7 244.03 0.7ZM254.78-26.6L254.78-26.6Q254.78-21.35 254.86-17.95 254.93-14.55 255.08-12.35L255.08-12.35Q258.88-18.65 260.83-24.68 262.78-30.7 262.78-36.4L262.78-36.4Q262.78-40.55 261.83-42.78 260.88-45 259.13-45L259.13-45Q257.18-45 256.18-42.7L256.18-42.7Q255.68-41.5 255.36-39.68 255.03-37.85 254.91-34.75 254.78-31.65 254.78-26.6ZM266.08 0.7L266.08 0.7Q265.43 0.7 265.03 0.1 264.63-0.5 264.63-1.45L264.63-1.45Q264.63-3.6 266.43-3.6L266.43-3.6Q267.88-3.6 269.38-4.08 270.88-4.55 272.88-5.7L272.88-5.7Q270.93-9.1 270.93-13.7L270.93-13.7Q270.93-16.8 272.08-19.18 273.23-21.55 275.28-22.93 277.33-24.3 279.93-24.3L279.93-24.3Q282.13-24.3 283.83-23.28 285.53-22.25 286.48-20.45 287.43-18.65 287.43-16.3L287.43-16.3Q287.43-13.1 285.55-10.45 283.68-7.8 279.23-4.7L279.23-4.7Q280.83-3.55 283.53-3.55L283.53-3.55Q284.23-3.55 284.63-2.95 285.03-2.35 285.03-1.35L285.03-1.35Q285.03-0.4 284.58 0.15 284.13 0.7 283.28 0.7L283.28 0.7Q280.88 0.7 278.78-0.1 276.68-0.9 275.28-2.3L275.28-2.3Q270.48 0.7 266.08 0.7ZM275.28-14.1L275.28-14.1Q275.28-10.15 276.68-7.8L276.68-7.8Q279.93-10.05 281.5-12.2 283.08-14.35 283.08-16.3L283.08-16.3Q283.08-18.1 282.2-19.13 281.33-20.15 279.78-20.15L279.78-20.15Q277.83-20.15 276.55-18.4 275.28-16.65 275.28-14.1Z" opacity="1" transform="matrix(1,0,0,1,0,0)" fill="#000000" class="wordmark-text-0" data-fill-palette-color="primary" id="text-0"></path></svg></g></svg></g></svg></g></svg></g></svg></g><defs></defs></svg>